######## ######## ######## ##          ######## ########  ######## ######## 
##       ##       ##       ##          ##       ##     ## ##       ##       
##       ##       ##       ##          ##       ##     ## ##       ##       
######   ######   ######   ##          ######   ########  ######   ######   
##       ##       ##       ##          ##       ##   ##   ##       ##       
##       ##       ##       ##          ##       ##    ##  ##       ##       
##       ######## ######## ########    ##       ##     ## ######## ########  

 Genre:Action | Adventure | Drama
 Language:English
 IMDb:  http://www.imdb.com/title/tt1414378/
 Source:720p.BluRay.X264-7SinS

 Format : MPEG-4
 Format profile : Base Media
 Codec ID : isom
 File size : 2.31 GiB
 Duration : 1h 37mn
 Overall bit rate : 3 373 Kbps

 Video
 ID : 1
 Format : AVC
 Format/Info : Advanced Video Codec
 Format profile : High@L4.1
 Format settings, CABAC : Yes
 Format settings, ReFrames : 3 frames
 Codec ID : avc1
 Codec ID/Info : Advanced Video Coding
 Duration : 1h 37mn
 Bit rate mode : Variable
 Bit rate : 3 000 Kbps
 Maximum bit rate : 13.8 Mbps
 Width : 1 280 pixels
 Height : 528 pixels
 Display aspect ratio : 2.40:1
 Frame rate mode : Constant
 Frame rate : 25.000 fps
 Color space : YUV
 Chroma subsampling : 4:2:0
 Bit depth : 8 bits
 Scan type : Progressive
 Bits/(Pixel*Frame) : 0.178
 Stream size : 2.00 GiB (87%)
 Writing library : x264

 Audio
 ID : 2
 Format : AAC
 Format/Info : Advanced Audio Codec
 Format version : Version 4
 Format profile : LC
 Format settings, SBR : No
 Codec ID : 40
 Duration : 1h 37mn
 Bit rate mode : Variable
 Bit rate : 446 Kbps
 Maximum bit rate : 555 Kbps
 Channel(s) : 6 channels
 Channel positions : Front: L C R, Side: L R, LFE
 Sampling rate : 48.0 KHz
 Stream size : 312 MiB (13%)


 Plot:
 An ex-Boer war guerrilla in New Zealand is sent out to bring back a 
 Maori accused of killing a British soldier


Screen Shots:
 
http://www.pix2links.com/images/39011858586695858445.png
 
http://www.pix2links.com/images/27151769748244901076.png
 
http://www.pix2links.com/images/12621799778000827089.png
 
http://www.pix2links.com/images/67666666611453599230.png
 
http://www.pix2links.com/images/91801972532923719754.png

######## ######## ######## ##          ######## ########  ######## ######## 
##       ##       ##       ##          ##       ##     ## ##       ##       
##       ##       ##       ##          ##       ##     ## ##       ##       
######   ######   ######   ##          ######   ########  ######   ######   
##       ##       ##       ##          ##       ##   ##   ##       ##       
##       ##       ##       ##          ##       ##    ##  ##       ##       
##       ######## ######## ########    ##       ##     ## ######## ########  